<svg width="544" height="720" viewBox="0 0 544 720" fill="none" xmlns="http://www.w3.org/2000/svg">
<g clip-path="url(#clip0_1201_2488)">
<path d="M30.3197 106.354C37.2832 110.421 44.185 114.586 51.0117 118.869C56.249 121.931 61.4152 125.052 65.822 129.279C67.3189 130.648 68.7805 132.08 70.1096 133.691L69.8844 134.02C62.1326 131.333 55.4766 126.638 49.1924 121.506C42.7454 116.67 36.3779 111.726 30.0856 106.687L30.3108 106.359L30.3197 106.354Z" fill="#A59790"/>
<path d="M92.6259 151.225C104.66 161.741 116.689 172.248 128.714 182.768L92.6259 151.225Z" fill="white"/>
<path d="M92.7497 151.072C99.1472 155.877 105.483 160.781 111.717 165.793C116.53 169.409 121.272 173.084 125.123 177.763C126.443 179.29 127.709 180.867 128.838 182.614L128.577 182.916C121.238 179.39 115.211 173.991 109.609 168.195C103.805 162.683 98.1068 157.071 92.4885 151.374L92.7497 151.072Z" fill="#A59790"/>
<path d="M188.517 240.429C196.224 252.718 203.94 265.002 211.651 277.3L188.517 240.429Z" fill="white"/>
<path d="M188.686 240.32C193.035 246.149 197.291 252.038 201.436 258.016C205.884 263.84 209.887 270.026 211.811 277.196L211.473 277.414C205.858 272.557 202.032 266.258 198.723 259.717C195.152 253.389 191.692 246.993 188.339 240.542L188.677 240.325L188.686 240.32Z" fill="#A59790"/>
<path d="M226.391 296.012C230.7 304.288 235.017 312.56 239.325 320.836L226.391 296.012Z" fill="white"/>
<path d="M226.569 295.921C229.979 300.703 232.953 305.753 236.234 310.612C238.188 313.645 239.292 317.101 239.503 320.745L239.147 320.927C235.217 317.983 233.005 313.677 231.44 309.165C229.578 304.861 227.835 300.507 226.218 296.112L226.574 295.93L226.569 295.921Z" fill="#A59790"/>
<path d="M146.859 199.021C152.309 203.467 157.428 208.275 162.781 212.838C165.995 215.677 168.548 219.156 170.291 223.117L170.008 223.396C164.696 221.024 160.746 216.855 157.289 212.332C153.62 208.076 150.053 203.733 146.579 199.31L146.863 199.03L146.859 199.021Z" fill="#A59790"/>
<path d="M248.417 345.085C252.087 360.638 255.753 376.183 259.432 391.732L248.417 345.085Z" fill="white"/>
<path d="M248.609 345.043C251.015 352.674 253.314 360.337 255.48 368.046C257.293 373.79 259.016 379.535 259.423 385.583C259.606 387.589 259.722 389.618 259.624 391.69L259.232 391.778C255.313 384.639 253.544 376.739 252.36 368.775C250.851 360.922 249.471 353.036 248.216 345.131L248.609 345.043Z" fill="#A59790"/>
<path d="M261.72 411.238C260.856 422.842 259.993 434.447 259.12 446.055L261.72 411.238Z" fill="white"/>
<path d="M261.917 411.25C262.187 418.546 261.952 425.842 262.065 433.14C262.06 437.59 261.141 441.968 259.317 446.067L258.919 446.035C257.186 440.272 257.706 434.324 258.818 428.522C259.59 422.737 260.491 416.964 261.51 411.222L261.908 411.254L261.917 411.25Z" fill="#A59790"/>
<path d="M253.519 463.068C250.344 474.259 247.16 485.455 243.99 496.655L253.519 463.068Z" fill="white"/>
<path d="M253.716 463.125C252.703 468.876 251.564 474.602 250.299 480.302C249.349 486.133 247.79 491.894 244.187 496.711L243.806 496.602C243.266 490.601 244.973 484.888 247.223 479.425C249.134 473.912 251.178 468.442 253.335 463.016L253.716 463.125Z" fill="#A59790"/>
<path d="M238.945 514.933C237.61 523.768 236.275 532.604 234.931 541.444L238.945 514.933Z" fill="white"/>
<path d="M239.142 514.967C239.112 520.598 238.575 526.184 238.392 531.803C238.203 535.257 237.074 538.563 235.128 541.478L234.738 541.419C233.272 536.924 233.992 532.333 235.362 527.961C236.361 523.587 237.503 519.23 238.748 514.921L239.138 514.98L239.142 514.967Z" fill="#A59790"/>
<path d="M231.89 563.291C234.337 571.53 236.776 579.773 239.224 588.012L231.89 563.291Z" fill="white"/>
<path d="M232.077 563.241C234.379 568.14 236.204 573.227 238.368 578.185C239.634 581.278 239.968 584.634 239.411 587.961L239.032 588.077C235.855 584.804 234.596 580.495 234.029 576.113C233.129 571.89 232.358 567.634 231.707 563.351L232.086 563.236L232.077 563.241Z" fill="#A59790"/>
<path d="M250.109 609.222C255.33 616.055 260.547 622.878 265.777 629.706L250.109 609.222Z" fill="white"/>
<path d="M250.273 609.104C254.17 612.863 257.69 616.959 261.477 620.83C263.757 623.27 265.273 626.28 265.933 629.593L265.617 629.832C261.477 627.906 258.775 624.334 256.675 620.443C254.326 616.815 252.088 613.118 249.953 609.358L250.269 609.118L250.273 609.104Z" fill="#A59790"/>
<path d="M288.529 645.042C295.828 649.588 303.113 654.131 310.412 658.677L288.529 645.042Z" fill="white"/>
<path d="M288.635 644.875C293.605 647.019 298.355 649.611 303.258 651.889C306.25 653.369 308.73 655.651 310.526 658.506L310.319 658.848C305.763 658.503 301.972 656.117 298.637 653.217C295.157 650.65 291.761 647.983 288.436 645.213L288.644 644.871L288.635 644.875Z" fill="#A59790"/>
<path d="M331.34 667.567C339.759 668.901 348.188 670.231 356.608 671.566L331.34 667.567Z" fill="white"/>
<path d="M331.365 667.374C336.736 667.403 342.072 667.933 347.432 668.113C350.738 668.299 353.892 669.438 356.633 671.373L356.565 671.767C352.271 673.232 347.886 672.519 343.715 671.147C339.542 670.146 335.404 669.016 331.297 667.768L331.365 667.374Z" fill="#A59790"/>
<path d="M368.567 671.608C380.52 669.418 392.469 667.219 404.422 665.03L368.567 671.608Z" fill="white"/>
<path d="M368.534 671.411C374.396 669.74 380.286 668.168 386.208 666.747C392.109 664.978 398.208 663.77 404.389 664.833L404.464 665.222C399.062 668.409 392.936 669.451 386.79 669.886C380.746 670.65 374.682 671.29 368.609 671.799L368.534 671.411Z" fill="#A59790"/>
<path d="M416.861 658.672C424.642 655.482 432.413 652.296 440.194 649.106L416.861 658.672Z" fill="white"/>
<path d="M416.788 658.485C421.33 655.748 426.091 653.461 430.692 650.862C433.577 649.321 436.818 648.675 440.121 648.919L440.276 649.288C437.426 652.744 433.362 654.394 429.14 655.362C425.117 656.654 421.044 657.803 416.939 658.846L416.784 658.476L416.788 658.485Z" fill="#A59790"/>
<path d="M482.004 614.98C483.941 608.992 485.888 603 487.825 597.012L482.004 614.98Z" fill="white"/>
<path d="M481.816 614.919C482.222 611.758 482.739 608.618 483.396 605.508C483.727 603.958 483.699 602.299 484.474 600.892C485.208 599.473 486.108 598.114 487.641 596.96L488.018 597.082C488.584 598.915 488.509 600.548 488.273 602.129C488.072 603.714 487.082 605.051 486.437 606.492C485.792 607.934 485.117 609.38 484.413 610.795C483.675 612.206 482.981 613.638 482.192 615.041L481.816 614.919Z" fill="#A59790"/>
<path d="M452.153 643.522C458.872 638.167 465.6 632.808 472.32 627.453L452.153 643.522Z" fill="white"/>
<path d="M452.026 643.362C455.712 639.389 459.732 635.785 463.522 631.927C465.916 629.603 468.894 628.025 472.193 627.294L472.442 627.604C470.6 631.78 467.078 634.557 463.229 636.738C459.65 639.162 455.999 641.466 452.279 643.681L452.031 643.371L452.026 643.362Z" fill="#A59790"/>
<path d="M490.682 587.309C491.015 581.939 491.339 576.574 491.671 571.204L490.682 587.309Z" fill="white"/>
<path d="M490.476 587.302C490.05 584.6 489.74 581.883 489.572 579.161C489.489 577.811 489.043 576.433 489.42 575.106C489.762 573.775 490.283 572.464 491.461 571.188L491.855 571.212C493.803 574.012 493.667 576.384 492.758 579.352C492.254 582.036 491.62 584.684 490.865 587.316L490.472 587.293L490.476 587.302Z" fill="#A59790"/>
<path d="M489.538 559.537C486.627 551.557 483.722 543.587 480.811 535.607L489.538 559.537Z" fill="white"/>
<path d="M489.351 559.61C486.773 554.919 484.664 550.023 482.22 545.263C480.781 542.293 480.255 539.002 480.624 535.68L481.003 535.542C484.357 538.567 485.856 542.731 486.681 547.026C487.827 551.135 488.838 555.29 489.73 559.473L489.351 559.61Z" fill="#A59790"/>
<path d="M451.425 497.731C457.366 497.356 463.835 499.115 468.361 503.27C473.034 507.688 475.737 514.538 473.942 520.913C472.108 527.41 465.977 532.553 459.124 532.417C446.896 532.355 433.242 520.736 437.099 507.759C437.766 505.812 438.927 504.084 440.396 502.761C436.564 507.875 437.761 514.877 441.395 519.702C444.525 523.673 449.031 526.446 453.873 527.745C460.955 530.133 468.046 526.846 470.332 519.827C472.009 514.736 469.897 509.044 466.517 505.089C462.682 500.816 457.14 498.651 451.443 497.722L451.425 497.731Z" fill="#A59790"/>
<path d="M461.437 498.049C464.313 493.019 465.991 487.513 465.779 481.759C465.641 477.753 465.033 473.728 462.218 470.967C459.166 467.743 456.447 469.345 453.992 472.363C451.507 475.105 449.897 478.634 449.214 482.307C448.042 486.826 448.539 491.446 450.558 495.771C443.235 487.441 445.871 472.909 454.651 466.468C459.816 462.862 465.984 467.481 467.768 472.466C470.869 481.347 468.071 491.649 461.455 498.063L461.437 498.049Z" fill="#A59790"/>
<path d="M458.674 496.137C455.753 485.412 466.18 469.908 478.219 474.413C486.302 477.66 484.049 485.931 480.99 491.987C479.896 494.174 478.563 496.225 476.893 497.967C478.698 493.72 479.918 489.053 480.433 484.612C480.788 481.747 479.721 478.979 476.829 478.11C471.871 476.275 467.306 479.451 463.797 483.726C460.884 487.057 459.24 491.378 458.679 496.146L458.674 496.137Z" fill="#A59790"/>
<path d="M444.849 495.96C442.038 496.284 439.945 496.714 438.177 498.595C436.427 500.466 435.654 502.646 434.918 505.403C432.418 502.84 432.777 498.401 435.281 495.829C437.699 493.066 442.662 492.978 444.835 495.955L444.849 495.96Z" fill="#A59790"/>
<path d="M434.767 512.511C426.67 517.346 420.376 524.852 419.359 534.266C419.216 535.305 419.225 536.334 419.436 536.877C419.587 537.305 419.771 537.402 420.122 537.56C422.166 538.11 424.675 537.131 426.726 536.397C431.202 534.761 434.929 531.969 438.045 528.287C436.316 532.99 432.5 536.95 428.048 539.248C425.016 540.786 420.976 542.615 417.631 540.596C414.04 538.141 415.397 533.304 416.151 529.988C418.364 521.287 426.168 514.277 434.758 512.516L434.767 512.511Z" fill="#A59790"/>
<path d="M437.88 523.195C435.572 526.306 433.74 529.443 432.362 533.011C431.058 536.216 429.66 539.94 429.814 543.253C429.758 547.493 434.029 550.532 437.911 550.087C444.906 548.589 447.562 539.854 448.22 533.385C448.833 535.902 448.919 538.554 448.553 541.2C447.787 546.623 444.406 552.686 438.512 553.834C433.778 554.613 428.917 552.089 426.921 547.809C423.384 539.835 431.406 527.536 437.875 523.186L437.88 523.195Z" fill="#A59790"/>
<path d="M435.772 492.659C432.428 492.751 428.831 491.647 426.403 489.181C423.041 485.79 421.902 478.859 426.944 476.417C430.319 474.737 434.529 475.438 437.324 477.94C439.491 479.741 439.534 483.099 437.525 485.013C436.226 486.317 434.409 487.684 432.462 486.995C430.631 486.246 429.938 483.792 430.863 482.129C431.6 481.023 432.971 480.872 434.016 481.136C432.937 481.069 431.747 481.509 431.348 482.398C430.674 484.023 432.155 486.702 434.07 485.791C435.616 485.102 437.384 483.288 437.279 481.523C436.879 478.695 433.187 477.404 430.62 477.503C424.222 477.662 424.137 484.219 427.384 488.31C429.454 490.8 432.574 492.092 435.781 492.654L435.772 492.659Z" fill="#A59790"/>
<path d="M430.977 497.67C427.725 496.558 424.155 496.384 421.064 497.851C418.226 499.155 415.457 501.581 415.303 504.861C414.868 510.867 421.302 513.721 425.787 510.081C427.208 508.884 427.744 506.307 426.773 504.715C426.323 503.945 425.26 503.534 424.245 503.525C421.668 503.427 421.19 506.535 422.729 508.208C420.518 506.452 421.081 502.806 424.191 502.542C428.306 502.09 429.683 506.541 428.185 509.698C427.312 511.526 425.471 512.736 423.597 513.267C417.932 514.95 412.853 510.549 413.423 504.721C414.351 496.846 424.816 493.766 430.977 497.67Z" fill="#A59790"/>
<path d="M455.707 502.505C454.03 508.607 450.331 514.069 445.243 517.848C446.907 511.742 450.638 506.298 455.707 502.505Z" fill="#A59790"/>
<path d="M467.313 508.557C468.049 516.547 462.129 524.806 454.319 526.641C459.682 521.182 463.862 515.385 467.313 508.557Z" fill="#A59790"/>
</g>
<defs>
<clipPath id="clip0_1201_2488">
<rect width="671.25" height="267.75" fill="white" transform="translate(238.417) rotate(62.9293)"/>
</clipPath>
</defs>
</svg>
