<svg width="815" height="186" viewBox="0 0 815 186" fill="none" xmlns="http://www.w3.org/2000/svg">
<g clip-path="url(#clip0_1407_9621)">
<path d="M591.64 85.04V17.5L592.46 16.68H604.22L603.34 112.56L532.54 42.93V110.74H520.5V11.76L591.64 85.04Z" fill="#FBF4EE"/>
<path d="M673.6 15.74C734.39 9.31 750.65 92.06 695.75 110.07C655.53 123.26 618.38 81.69 636.41 43.12C642.75 29.55 658.55 17.34 673.59 15.75L673.6 15.74ZM676.34 27.23C648.34 30.25 634.89 64.23 651.92 86.31C667.98 107.13 699.78 104.9 712.31 81.77C726.57 55.43 706.02 24.03 676.34 27.23Z" fill="#FBF4EE"/>
<path d="M758.54 16.68C780.8 15.93 810.4 16.58 807.18 46.96C805.81 59.86 797.3 66.89 785.36 69.99L814.36 110.73H799.31L772.25 71.17L770.58 70.81V110.73H758.54V16.68ZM770.58 29.53V58.51L771.4 59.33H780.16C781.98 59.33 788.94 56.26 790.54 54.94C796.07 50.38 796.29 37.97 791.13 33.06C787.72 29.81 780.36 28.85 775.81 28.69C774.62 28.65 770.95 28.35 770.59 29.53H770.58Z" fill="#FBF4EE"/>
<path d="M317.94 15.13V27.16H281.55L280.73 27.98V51.5L281.55 52.32H316.84V63.8H280.73V96.89L281.55 97.71H317.94V109.19H268.69V15.13H317.94Z" fill="#FBF4EE"/>
<path d="M210.68 15.13V96.89L211.5 97.71H235.85V109.19H198.1V15.13H210.68Z" fill="#FBF4EE"/>
<path d="M140.09 15.13V96.89L140.91 97.71H165.26V109.19H127.5V15.95L128.32 15.13H140.09Z" fill="#FBF4EE"/>
<path d="M12.04 15.13V96.34C12.04 96.44 13.31 97.71 13.41 97.71H37.76V109.19H0V15.13H12.04Z" fill="#FBF4EE"/>
<path d="M84.82 109.19H72.23V15.13H84L84.82 15.95V109.19Z" fill="#FBF4EE"/>
<path d="M442.45 35.59C451.08 28.91 459.33 31.44 468.29 35.52C471.59 37.02 480.72 41.35 481.53 44.95C482.68 50.07 478.34 57.73 475.76 62.09C471.88 68.64 468.15 73.77 460.2 75.38C458.99 75.63 456.09 75.24 455.65 76.19C455.37 76.79 457.32 77.53 457.87 78.08C464.67 84.84 464.67 93.53 463.43 102.51C462.77 107.27 461.31 116.58 455.75 117.5C450.98 118.29 437.02 115.77 432.44 113.8C427.22 111.55 422.77 106.55 421.22 101.12C419.05 104.8 417.97 107.71 414.61 110.58C409.26 115.15 393.91 118.37 387.04 117.55C382.11 116.96 380.98 113.14 379.98 108.95C378.01 100.74 376.45 87.82 381.84 80.72C382.32 80.09 386.95 76.09 386.37 75.57C376.5 76.38 370.57 69.6 366.09 61.84C364.11 58.42 359.94 50.32 360.13 46.57C360.34 42.5 367.03 38.77 370.34 37.08C378.24 33.05 386.88 29.22 395.6 33.16C396.27 33.47 399.69 35.88 399.98 35.58C398.05 29.95 398.66 23.61 401.56 18.41C403.81 14.36 413.16 4.55 417.17 2.28C419.61 0.899998 421.11 0.509998 423.77 1.72C428.76 3.99 438.95 15.05 441.3 20.05C443.77 25.3 443.77 30 442.46 35.58L442.45 35.59ZM419.24 2.31C414.02 3.4 401.86 18.44 400.26 23.73C396.43 36.4 408.49 45.48 415.42 54.18L416.18 54.49C419.83 51.9 422.37 52.95 426.09 54.52C433.66 45.47 445.26 37.15 441.74 23.73C440.33 18.34 433.41 10.74 429.25 6.95C426.44 4.39 423.37 1.45 419.23 2.31H419.24ZM412.72 57.39C406.52 45.44 399.91 29.58 383.45 32.89C378.47 33.89 367.41 38.98 363.67 42.38C360.25 45.49 360.76 47.6 362.12 51.77C364.83 60.09 372.68 72.46 381.72 74.63C390.76 76.8 400.93 69.92 408.8 66.87C410.02 66 409.2 62.86 409.65 61.12C409.97 59.86 411.33 57.67 412.73 57.38L412.72 57.39ZM432.14 66.47C436.63 68.07 440.75 70.52 445.22 72.17C453.82 75.35 459.72 76.83 467.73 70.96C471.97 67.85 480.92 52.4 481.18 47.28C481.43 42.39 470.44 37.35 466.5 35.65C456.29 31.25 447.74 30.41 439.97 39.52C435.67 44.56 432.27 51.57 429.27 57.4C432.53 59.02 433.19 63.19 432.14 66.48V66.47ZM432.95 48.37L425.74 56.19C423.02 52.8 419.01 53.25 415.86 55.79L409.05 48.37L414.03 57.6C410.41 59.72 408.86 63.02 410.94 66.92C408.05 68.73 404.13 68.92 401.63 71.24L411.89 69.43C412.68 73.23 415.79 75.68 419.73 75.19L421.01 85.45L422.25 74.74C425.64 76.27 430.21 72.5 430.08 68.97L440.38 71.44C439.48 69.38 431.76 68.02 431.07 66.92C432.12 63.62 431.99 58.88 428.02 57.83L432.95 48.37ZM411.07 70.24C399.32 72.85 384.53 73.28 379.86 86.58C377.74 92.61 379.52 105.62 381.71 111.74C382.66 114.4 383.99 116.33 387.02 116.74C393.46 117.61 408.58 114.26 413.78 110.17C424.18 101.99 420 87.95 419.3 76.65C419.09 76 416.17 75.6 415.07 75.11C412.97 74.16 411.47 72.58 411.07 70.25V70.24ZM423.14 76.05C421.8 87.97 417.67 104.08 430.21 111.48C435.53 114.62 448.51 117.38 454.6 116.76C460.69 116.14 461.4 109.01 462.17 104.13C464.92 86.58 462.44 77.97 444.68 73.12C442.89 72.63 431.58 69.88 430.88 70.38C429.74 74.1 426.87 75.63 423.14 76.05Z" fill="#FBF4EE" stroke="#FBF4EE" stroke-width="2" stroke-miterlimit="10"/>
<path d="M432.8 164.56C439.12 163.49 445.07 165.85 446.37 172.61C448.12 181.66 439.5 187.84 431.17 184.52C422.39 181.02 423.72 166.09 432.8 164.56ZM433.89 166.2C430.65 166.81 427.52 170.34 427.04 173.59C425.88 181.53 437.04 187.58 442.49 180.26C447.41 173.65 442.12 164.66 433.89 166.2Z" fill="#FBF4EE" stroke="#FBF4EE" stroke-width="0.5" stroke-miterlimit="10"/>
<path d="M553.33 185.21V164.43C560.94 163.89 569.46 165.76 569.22 175.07C568.99 184.01 560.66 185.54 553.33 185.21ZM555.52 183.02C570.62 184.89 570.88 164.69 555.52 166.61V183.02Z" fill="#FBF4EE" stroke="#FBF4EE" stroke-width="0.5" stroke-miterlimit="10"/>
<path d="M251.81 184.39L250.44 185.22L249.22 184.42V165.23C249.53 163.45 256.85 164.71 258.37 165.81C262.24 168.63 260.27 175.5 255.63 176.21L261.12 184.93C261.12 185.5 259.48 185.25 258.93 184.93C258.19 184.5 254.68 178.28 253.35 176.83C252.86 176.29 252.86 175.66 251.81 175.91V184.39ZM251.81 174.27C260.66 175.09 260.35 166.17 251.81 166.07V174.27Z" fill="#FBF4EE" stroke="#FBF4EE" stroke-width="0.5" stroke-miterlimit="10"/>
<path d="M460.85 164.43C465.15 164.16 471.81 164.51 471.84 170.17C471.84 171.88 471.24 173.76 469.89 174.84C468.92 175.62 466.51 175.73 466.87 176.73L472.89 184.94C469.55 186.98 465.4 175.95 463.86 175.93C461.41 178.3 465.33 185.44 460.85 185.22V164.44V164.43ZM463.04 174.27C466.83 174.34 470.16 174.32 469.64 169.6C469.32 166.68 464.06 165.4 463.29 166.59L463.04 174.28V174.27Z" fill="#FBF4EE" stroke="#FBF4EE" stroke-width="0.5" stroke-miterlimit="10"/>
<path d="M508.46 164.43V173.18C509.42 173.42 509.55 172.79 510.11 172.36C511.73 171.12 518.23 162.92 519.95 164.43C518.43 168.34 513.13 169.63 511.84 173.91L520.5 185.2C519.38 185.27 518.46 185.35 517.45 184.7C515.68 183.56 512.09 177.05 510.64 176.19C509.94 175.77 509.21 175.9 508.46 175.91V185.21H506.27V164.43H508.46Z" fill="#FBF4EE" stroke="#FBF4EE" stroke-width="0.5" stroke-miterlimit="10"/>
<path d="M313.65 164.43H315.84V179.47C315.84 185.64 305.57 187.58 302.16 182.21C301.68 181.46 300.52 177.96 300.52 177.29V165.26L301.89 164.43L303.11 165.23C302.36 170.61 300.94 186.33 310.4 183.33C311.76 182.9 313.65 180.12 313.65 178.93V164.44V164.43Z" fill="#FBF4EE" stroke="#FBF4EE" stroke-width="0.5" stroke-miterlimit="10"/>
<path d="M367.82 172.63V174.82H359.06L359.3 182.51C360.44 184.15 370.62 181.21 367.54 185.21H357.42V164.43H367.54L368.36 165.79C367.96 167.66 360.29 165.71 359.3 167.13C358.97 168.84 358.5 171.38 359.88 172.63H367.81H367.82Z" fill="#FBF4EE" stroke="#FBF4EE" stroke-width="0.5" stroke-miterlimit="10"/>
<path d="M286.29 164.43V166.62H278.36L277.63 167.53C277.48 168.22 277.51 168.93 277.51 169.63C277.51 170.75 277.33 171.94 278.36 172.64H286.29V174.83H278.36C277.02 176.65 277.04 181.28 278.36 183.03H286.29V185.22H275.89V164.44H286.29V164.43Z" fill="#FBF4EE" stroke="#FBF4EE" stroke-width="0.5" stroke-miterlimit="10"/>
<path d="M341.38 174.99C342.32 176.03 342.73 178.09 342.7 179.47C342.48 187.24 330.93 187.3 330.07 179.74L332.18 179.83C332.95 184.99 340.33 184.65 340.51 179.45C340.71 173.78 330.06 175.74 331.19 168.02C332.05 162.09 342.04 164.53 342.1 166.88C342.15 169.01 338.36 166.27 337.89 166.17C334.87 165.46 332.53 167.58 333.46 170.6C334.13 172.78 339.62 173.02 341.39 174.98L341.38 174.99Z" fill="#FBF4EE" stroke="#FBF4EE" stroke-width="0.5" stroke-miterlimit="10"/>
<path d="M584.91 164.54C587.32 163.99 590.62 164.18 592.18 166.34L591.35 167.7C589.01 165.55 583.61 165.15 583.42 169.12C583.23 173.09 591.5 172.59 592.59 176.86C594.17 183.03 589.48 187.16 583.56 184.79C581.06 183.79 578.78 178.8 581.99 179.79C583.27 180.18 582.96 183.88 586.98 183.62C588.55 183.52 590.72 181.41 591 179.88C591.8 175.52 585.38 174.99 582.9 172.88C579.8 170.24 581.1 165.42 584.9 164.55L584.91 164.54Z" fill="#FBF4EE" stroke="#FBF4EE" stroke-width="0.5" stroke-miterlimit="10"/>
<path d="M411.6 164.43V166.61H404.48V172.31L411.6 172.63V174.81L404.49 174.82V185.21H402.3V164.43H411.6Z" fill="#FBF4EE" stroke="#FBF4EE" stroke-width="0.5" stroke-miterlimit="10"/>
<path d="M535.82 165.25L536.65 164.43L538.01 165.25V184.39L537.18 185.2L535.82 184.39V165.25Z" fill="#FBF4EE" stroke="#FBF4EE" stroke-width="0.5" stroke-miterlimit="10"/>
<path d="M419.64 60.4C422.38 59.59 425.67 62.12 425.54 65.03C425.35 69.22 422.81 70.59 418.81 69.7C416.35 69.15 415.08 63.84 416.88 62.18C417.04 62.03 419.47 60.44 419.63 60.39L419.64 60.4ZM420.06 61.21C419.91 61.26 417.7 63.01 417.53 63.22C416.44 64.52 417.71 68.2 418.95 68.75C422.6 70.37 425.84 66.97 424.65 63.47C424.4 62.74 421.1 60.89 420.06 61.21Z" fill="#FBF4EE" stroke="#FBF4EE" stroke-width="2" stroke-miterlimit="10"/>
</g>
<defs>
<clipPath id="clip0_1407_9621">
<rect width="814.36" height="185.72" fill="white"/>
</clipPath>
</defs>
</svg>
