<svg width="30" height="29" viewBox="0 0 30 29" fill="none" xmlns="http://www.w3.org/2000/svg">
<path d="M25.604 4.2432C23.5058 2.21652 20.8328 0.836598 17.923 0.277917C15.0133 -0.280763 11.9974 0.00689348 9.25681 1.10451C6.51622 2.20213 4.17399 4.06041 2.52629 6.44438C0.8786 8.82834 -0.000555378 11.6309 2.63218e-07 14.4977C-2.40674e-07 18.3427 1.5801 22.0303 4.3929 24.7498C7.2057 27.4693 11.0209 28.9981 14.9998 29C16.9688 29.0001 18.9187 28.6282 20.74 27.9052C22.555 27.1644 24.2062 26.0941 25.604 24.7522C26.9977 23.4057 28.1032 21.807 28.8575 20.0475C29.6118 18.288 30 16.4022 30 14.4977C30 12.5932 29.6118 10.7074 28.8575 8.94791C28.1032 7.18843 26.9977 5.58976 25.604 4.2432ZM24.5466 23.7158C22.3866 25.8122 19.5524 27.1353 16.5104 27.4673V17.8916H19.3503C19.7509 17.8916 20.1351 17.7378 20.4184 17.464C20.7017 17.1903 20.8608 16.819 20.8608 16.4318C20.8608 16.0447 20.7017 15.6734 20.4184 15.3997C20.1351 15.1259 19.7509 14.9721 19.3503 14.9721H16.5104V10.9725C16.5104 10.5854 16.6696 10.2141 16.9528 9.94032C17.2361 9.66657 17.6203 9.51278 18.021 9.51278H19.8336C20.2343 9.51278 20.6185 9.35899 20.9018 9.08524C21.185 8.81149 21.3442 8.4402 21.3442 8.05306C21.3442 7.66592 21.185 7.29464 20.9018 7.02089C20.6185 6.74714 20.2343 6.59334 19.8336 6.59334H17.2657C16.2641 6.59334 15.3036 6.97782 14.5954 7.6622C13.8872 8.34657 13.4893 9.27478 13.4893 10.2426V14.9721H10.6645C10.2639 14.9721 9.8797 15.1259 9.59642 15.3997C9.31313 15.6734 9.15399 16.0447 9.15399 16.4318C9.15399 16.819 9.31313 17.1903 9.59642 17.464C9.8797 17.7378 10.2639 17.8916 10.6645 17.8916H13.4893V27.4673C10.684 27.158 8.05019 26.0049 5.95983 24.1708C3.86947 22.3367 2.42824 19.9143 1.83971 17.2458C1.25118 14.5773 1.54509 11.7975 2.67993 9.29916C3.81477 6.80081 5.73318 4.71013 8.16419 3.32244C10.5952 1.93474 13.4159 1.32017 16.228 1.56552C19.04 1.81087 21.7012 2.90375 23.8357 4.68979C25.9701 6.47583 27.47 8.86475 28.1234 11.5191C28.7768 14.1735 28.5507 16.9592 27.4771 19.4826C26.7919 21.0632 25.7968 22.5006 24.5466 23.7158Z" fill="#FBF4EE"/>
</svg>
