<svg width="28" height="28" viewBox="0 0 28 28" fill="none" xmlns="http://www.w3.org/2000/svg">
<path d="M19.7453 0.75H7.75475C3.88576 0.75 0.75 3.88632 0.75 7.7553V19.7447C0.75 23.6137 3.88632 26.75 7.7553 26.75H19.7447C23.6137 26.75 26.75 23.6137 26.75 19.7447V7.7553C26.75 3.88632 23.6142 0.75 19.7453 0.75Z" stroke="#FBF4EE" stroke-width="1.5" stroke-miterlimit="10"/>
<path d="M13.7499 20.0261C17.216 20.0261 20.0258 17.2162 20.0258 13.7501C20.0258 10.284 17.216 7.47412 13.7499 7.47412C10.2837 7.47412 7.47388 10.284 7.47388 13.7501C7.47388 17.2162 10.2837 20.0261 13.7499 20.0261Z" stroke="#FBF4EE" stroke-width="1.5" stroke-miterlimit="10"/>
<path d="M21.3708 5.53687C21.6993 5.53688 21.9656 5.80316 21.9656 6.13159C21.9656 6.46001 21.6993 6.7263 21.3708 6.72632C21.0424 6.72632 20.7761 6.46002 20.7761 6.13159C20.7761 5.80315 21.0424 5.53687 21.3708 5.53687Z" fill="#FBF4EE" stroke="#FBF4EE" stroke-width="1.5"/>
</svg>
