<svg width="25" height="23" viewBox="0 0 25 23" fill="none" xmlns="http://www.w3.org/2000/svg">
<path d="M24.2314 1.4668C24.4062 1.79991 24.4994 2.19148 24.5 2.65527V20.3467C24.5 21.0013 24.3173 21.5136 23.9756 21.918C23.6376 22.3177 23.2415 22.5008 22.7578 22.5H2.24414C1.75753 22.4999 1.361 22.3161 1.02441 21.918C0.683887 21.515 0.500839 21.0023 0.5 20.3447V2.65527C0.5 2.19094 0.592971 1.79916 0.767578 1.4668L0.996094 1.64258H0.888672V20.3447C0.888672 20.7348 0.996704 21.0992 1.24707 21.3955C1.50302 21.6983 1.84841 21.8573 2.24414 21.8574H22.7568C23.1524 21.8574 23.4973 21.6979 23.7529 21.3955C24.0033 21.0992 24.1113 20.7348 24.1113 20.3447V2.07715L23.3047 2.70117L12.8467 10.7998C12.7743 10.8434 12.7037 10.88 12.6338 10.9092C12.5968 10.9233 12.5538 10.9326 12.5 10.9326C12.444 10.9326 12.3993 10.9234 12.3613 10.9082C12.2927 10.8806 12.2236 10.8445 12.1533 10.8008L1.88867 2.84961V2.32812L12.1953 10.2539L12.5 10.4883L12.8047 10.2539L23.4883 2.03906L24.2314 1.4668ZM22.7568 0.5C23.242 0.5 23.6377 0.683632 23.9746 1.08301C23.9908 1.10217 24.0051 1.12293 24.0205 1.14258H0.979492C0.994733 1.12329 1.00848 1.10279 1.02441 1.08398C1.32039 0.734648 1.66105 0.549951 2.06641 0.508789L2.24414 0.5H22.7568Z" fill="#FBF4EE" stroke="white"/>
</svg>
