<svg width="30" height="29" viewBox="0 0 30 29" fill="none" xmlns="http://www.w3.org/2000/svg">
<path d="M15.0001 1.80013C22.2781 1.80013 28.2001 7.72254 28.2001 15.001C28.2001 18.9373 26.4241 22.6516 23.4481 25.1417C23.2441 23.1436 22.4401 21.2475 21.1201 19.7114C20.1541 18.5953 19.0021 17.7492 17.7601 17.2452C19.5001 16.2731 20.6821 14.413 20.6821 12.2828C20.6821 9.15063 18.1321 6.60646 15.0061 6.60646C11.8801 6.60646 9.3301 9.15663 9.3301 12.2828C9.3301 14.413 10.5121 16.2731 12.2521 17.2452C11.0161 17.7552 9.8581 18.5953 8.8921 19.7114C7.5661 21.2475 6.7681 23.1436 6.5641 25.1417C3.5881 22.6576 1.8121 18.9373 1.8121 15.001C1.8001 7.72254 7.7221 1.80013 15.0001 1.80013ZM15.0001 0.600044C7.0501 0.600044 0.600098 7.05049 0.600098 15.001C0.600098 20.3294 3.4981 24.9797 7.8001 27.4699C7.0081 22.1775 11.0641 17.8812 15.0001 17.8812C18.9361 17.8812 22.9921 22.1775 22.2001 27.4699C26.5021 24.9797 29.4001 20.3294 29.4001 15.001C29.4001 7.05049 22.9501 0.600044 15.0001 0.600044ZM15.0001 16.7592C12.5281 16.7592 10.5241 14.755 10.5241 12.2828C10.5241 9.81068 12.5281 7.80654 15.0001 7.80654C17.4721 7.80654 19.4761 9.81068 19.4761 12.2828C19.4761 14.755 17.4721 16.7592 15.0001 16.7592Z" fill="#FBF4EE"/>
</svg>
