<svg width="310" height="475" viewBox="0 0 310 475" fill="none" xmlns="http://www.w3.org/2000/svg">
<g clip-path="url(#clip0_1232_8753)">
<path d="M315.1 194.227C308.671 185.42 302.241 176.613 295.816 167.798L315.1 194.227Z" fill="white"/>
<path d="M314.952 194.336C310.328 189.283 306.065 183.929 301.552 178.782C298.854 175.599 296.853 171.924 295.668 167.907L295.973 167.693C300.712 170.778 303.952 175.338 306.68 180.146C309.641 184.74 312.501 189.403 315.26 194.113L314.955 194.327L314.952 194.336Z" fill="#A59790"/>
<path d="M289.491 152.303C284.967 142.413 280.446 132.516 275.913 122.623L289.491 152.303Z" fill="white"/>
<path d="M289.316 152.38C286.548 147.666 283.886 142.896 281.33 138.069C278.468 133.336 276.085 128.29 275.737 122.7L276.076 122.551C280.107 126.517 282.355 131.617 284.062 136.862C286.044 141.94 287.902 147.067 289.654 152.23L289.316 152.38Z" fill="#A59790"/>
<path d="M268.422 106.555C264.012 99.4458 259.601 92.3363 255.194 85.2183L268.422 106.555Z" fill="white"/>
<path d="M268.261 106.648C264.863 102.607 261.855 98.2951 258.574 94.1711C256.611 91.5904 255.411 88.5549 255.033 85.3114L255.348 85.1215C259.127 87.4593 261.399 91.1685 263.074 95.1098C265.016 98.8306 266.845 102.625 268.57 106.446L268.256 106.636L268.261 106.648Z" fill="#A59790"/>
<path d="M244.103 67.7947C237.349 63.3667 230.598 58.9302 223.844 54.5022L244.103 67.7947Z" fill="white"/>
<path d="M244 67.9427C239.378 65.8141 234.983 63.2672 230.424 61.0139C227.641 59.5588 225.364 57.3599 223.741 54.6503L223.943 54.342C228.203 54.7862 231.72 57.1148 234.787 59.9086C237.995 62.3892 241.131 64.9702 244.197 67.643L243.996 67.9513L244 67.9427Z" fill="#A59790"/>
<path d="M203.178 45.8354C195.293 44.066 187.418 42.3001 179.53 40.5392L203.178 45.8354Z" fill="white"/>
<path d="M203.132 46.0175C198.061 45.6554 193.055 44.8264 187.996 44.3176C184.883 43.9336 181.971 42.6865 179.488 40.7128L179.568 40.3534C183.7 39.262 187.801 40.2038 191.666 41.7314C195.55 42.9242 199.396 44.2319 203.207 45.6459L203.126 46.0053L203.132 46.0175Z" fill="#A59790"/>
<path d="M153.941 43.1438C145.958 44.246 137.988 45.3433 130.006 46.4455L153.941 43.1438Z" fill="white"/>
<path d="M153.966 43.3258C149.109 44.757 144.137 45.7364 139.246 47.0321C136.206 47.7574 133.047 47.6056 130.028 46.636L129.968 46.2684C133.437 43.7986 137.598 43.2435 141.745 43.3275C145.793 43.0879 149.842 42.9693 153.903 42.9667L153.962 43.3343L153.966 43.3258Z" fill="#A59790"/>
<path d="M109.637 52.5693C102.803 56.635 95.9659 60.7092 89.1323 64.7748L109.637 52.5693Z" fill="white"/>
<path d="M109.735 52.7219C105.875 55.9035 101.737 58.7056 97.7929 61.7713C95.3147 63.61 92.3665 64.676 89.231 64.9274L89.0403 64.6052C91.2227 60.999 94.7921 58.8944 98.6094 57.3881C102.202 55.6158 105.849 53.957 109.545 52.3996L109.735 52.7219Z" fill="#A59790"/>
<path d="M80.5516 71.8741C73.3304 80.5642 66.1178 89.2579 58.8966 97.948L80.5516 71.8741Z" fill="white"/>
<path d="M80.6942 71.9948C77.5153 76.683 74.257 81.3176 70.8832 85.8632C67.7362 90.6455 64.1068 95.1439 59.0391 98.0687L58.7497 97.8359C60.6781 92.3386 64.428 87.9414 68.5606 83.9674C72.4203 79.8181 76.3695 75.7467 80.4046 71.762L80.6942 71.9948Z" fill="#A59790"/>
<path d="M53.8578 109.906C50.2293 116.824 46.6043 123.733 42.9757 130.651L53.8578 109.906Z" fill="white"/>
<path d="M54.0243 109.996C52.437 114.66 50.4202 119.132 48.7066 123.732C47.5793 126.553 45.6528 128.947 43.1422 130.741L42.8064 130.57C42.7467 126.402 44.6519 122.8 47.0849 119.591C49.1778 116.27 51.3935 113.021 53.6973 109.828L54.0329 110L54.0243 109.996Z" fill="#A59790"/>
<path d="M33.7893 179.96C36.0394 185.393 38.286 190.835 40.5361 196.269L33.7893 179.96Z" fill="white"/>
<path d="M33.9614 179.891C35.5906 182.392 37.1267 184.944 38.5452 187.558C39.2501 188.862 40.2776 190.031 40.5776 191.498C40.9144 192.95 41.0953 194.458 40.6996 196.196L40.356 196.334C38.8378 195.361 37.8998 194.15 37.109 192.879C36.29 191.627 36.1864 190.081 35.7723 188.667C35.3583 187.253 34.9637 185.817 34.6074 184.387C34.2792 182.938 33.9056 181.501 33.6179 180.029L33.9614 179.891Z" fill="#A59790"/>
<path d="M37.8119 141.77C36.2567 149.602 34.6978 157.442 33.1426 165.274L37.8119 141.77Z" fill="white"/>
<path d="M37.9996 141.809C37.7752 146.845 37.0882 151.817 36.7195 156.832C36.418 159.921 35.2459 162.824 33.3303 165.312L32.9636 165.239C31.7454 161.157 32.5785 157.073 34.0079 153.22C35.096 149.355 36.3089 145.532 37.6243 141.731L37.991 141.805L37.9996 141.809Z" fill="#A59790"/>
<path d="M44.3851 204.905C47.4079 208.94 50.4343 212.967 53.457 217.002L44.3851 204.905Z" fill="white"/>
<path d="M44.5362 204.788C46.482 206.464 48.3535 208.22 50.1261 210.066C51.0056 210.981 52.1614 211.699 52.6974 212.873C53.2615 214.027 53.6849 215.274 53.6168 216.889L53.3209 217.107C50.227 216.267 48.8838 214.491 47.731 211.828C46.4621 209.611 45.3072 207.34 44.249 205.009L44.5449 204.791L44.5362 204.788Z" fill="#A59790"/>
<path d="M62.0681 224.067C68.9959 228.034 75.915 231.998 82.8428 235.965L62.0681 224.067Z" fill="white"/>
<path d="M62.1575 223.904C66.8499 225.719 71.3324 227.961 75.9707 229.905C78.8042 231.169 81.1789 233.208 82.9322 235.801L82.7446 236.125C78.5082 235.963 74.9072 233.881 71.7087 231.304C68.3942 229.051 65.1475 226.685 61.97 224.228L62.1575 223.904Z" fill="#A59790"/>
<path d="M126.866 245.511C122.844 249.32 117.148 251.92 111.387 251.649C105.362 251.278 99.2678 247.995 96.6805 242.369C94.0477 236.633 95.3101 229.303 100.295 225.316C109.08 218.071 125.904 218.234 131.025 229.806C131.73 231.594 131.949 233.521 131.702 235.342C131.337 229.403 126.228 225.114 120.699 223.832C116.049 222.861 111.141 223.565 106.889 225.523C100.372 228.039 97.2953 234.615 99.9226 240.993C101.814 245.631 106.782 248.439 111.602 249.25C116.94 250.018 122.22 248.261 126.859 245.528L126.866 245.511Z" fill="#A59790"/>
<path d="M119.51 251.252C120.507 256.56 122.651 261.495 126.297 265.481C128.828 268.261 131.707 270.774 135.398 271.069C139.539 271.554 140.511 268.788 140.434 265.168C140.547 261.728 139.556 258.246 137.814 255.214C135.909 251.286 132.748 248.281 128.677 246.395C138.974 247.982 145.913 259.936 143.543 269.773C142.038 275.429 134.82 275.805 130.518 273.307C122.905 268.809 118.651 259.78 119.489 251.253L119.51 251.252Z" fill="#A59790"/>
<path d="M122.648 250.971C131.251 256.894 133.206 274.187 121.859 278.145C114.104 280.644 110.693 273.391 109.204 267.24C108.658 265.024 108.366 262.764 108.504 260.524C109.791 264.635 111.752 268.697 114.081 272.177C115.567 274.436 118.011 275.778 120.607 274.675C125.268 273.03 126.606 268.04 126.52 262.893C126.581 258.777 125.133 254.709 122.639 250.967L122.648 250.971Z" fill="#A59790"/>
<path d="M132.646 242.856C134.46 240.949 135.696 239.394 135.819 236.996C135.934 234.616 135.163 232.597 134.015 230.189C137.36 230.53 139.8 233.916 139.57 237.246C139.518 240.661 136.021 243.683 132.659 242.851L132.646 242.856Z" fill="#A59790"/>
<path d="M129.808 225.019C132.665 216.738 132.608 207.623 127.619 200.289C127.09 199.462 126.459 198.732 125.978 198.469C125.61 198.254 125.42 198.294 125.073 198.39C123.277 199.216 122.076 201.412 121.055 203.158C118.847 206.996 117.876 211.213 117.882 215.701C116.264 211.31 116.589 206.205 118.378 201.91C119.613 199.003 121.392 195.287 125.011 194.736C129.071 194.349 131.038 198.615 132.513 201.434C136.213 208.97 134.886 218.632 129.812 225.011L129.808 225.019Z" fill="#A59790"/>
<path d="M121.093 219.241C120.854 215.643 120.26 212.308 119.078 208.938C118.065 205.87 116.804 202.376 114.682 200.101C112.147 197.037 107.246 197.412 104.74 200.044C100.645 205.284 104.05 213.109 107.507 218.124C105.54 216.69 103.869 214.847 102.523 212.738C99.7784 208.407 98.5154 202.059 102.034 197.725C104.947 194.346 109.958 193.252 113.985 195.12C121.358 198.71 123.087 212.28 121.101 219.245L121.093 219.241Z" fill="#A59790"/>
<path d="M141.144 239.804C143.48 237.745 146.724 236.39 149.957 236.704C154.422 237.123 159.446 241.397 157.322 246.147C155.928 249.359 152.491 251.368 148.972 251.246C146.328 251.251 144.258 248.877 144.532 246.312C144.67 244.606 145.14 242.546 146.951 241.878C148.716 241.321 150.701 242.662 151.05 244.401C151.195 245.631 150.305 246.557 149.398 246.991C150.21 246.396 150.794 245.372 150.54 244.499C150.035 242.936 147.348 241.904 146.532 243.697C145.844 245.111 145.68 247.461 146.828 248.66C148.831 250.441 152.257 249.163 154.033 247.563C158.513 243.635 154.592 238.899 149.785 237.912C146.792 237.366 143.776 238.303 141.14 239.813L141.144 239.804Z" fill="#A59790"/>
<path d="M141.531 233.365C144.533 232.221 147.193 230.217 148.513 227.326C149.751 224.703 150.258 221.318 148.377 218.883C145.041 214.332 138.705 216.128 137.707 221.403C137.418 223.105 138.599 225.266 140.26 225.825C141.049 226.107 142.06 225.766 142.792 225.168C144.695 223.702 143.149 221.196 141.032 220.919C143.68 220.855 145.492 223.795 143.427 225.839C140.758 228.615 137.07 226.255 136.224 223.106C135.739 221.279 136.321 219.317 137.339 217.821C140.37 213.241 146.676 213.358 149.807 217.862C153.925 224.043 148.309 232.482 141.531 233.365Z" fill="#A59790"/>
<path d="M120.903 244.652C118.398 239.293 117.727 233.184 119.072 227.451C121.59 232.806 122.227 238.92 120.903 244.652Z" fill="#A59790"/>
<path d="M108.927 247.246C103.548 241.976 102.767 232.546 107.24 226.578C106.718 233.676 107.249 240.31 108.927 247.246Z" fill="#A59790"/>
</g>
<defs>
<clipPath id="clip0_1232_8753">
<rect width="631" height="248.705" fill="white" transform="translate(581.499 474.185) rotate(-157.154)"/>
</clipPath>
</defs>
</svg>
