<svg width="361" height="687" viewBox="0 0 361 687" fill="none" xmlns="http://www.w3.org/2000/svg">
<g clip-path="url(#clip0_1232_8684)">
<path d="M-16.6614 291.26C-10.6187 298.37 -4.56839 305.472 1.47426 312.582L-16.6614 291.26Z" fill="white"/>
<path d="M-16.5081 291.132C-12.1192 295.035 -8.09565 299.296 -3.81535 303.303C-1.23487 305.825 0.610759 308.949 1.62755 312.453L1.32084 312.71C-3.16621 310.715 -6.28072 307.01 -8.81085 302.96C-11.5849 299.178 -14.2529 295.322 -16.8084 291.397L-16.5017 291.14L-16.5081 291.132Z" fill="#A59790"/>
<path d="M15.7358 334.198C22.7768 348.544 29.8113 362.883 36.8599 377.222L15.7358 334.198Z" fill="white"/>
<path d="M15.9138 334.115C19.9586 341.018 23.9062 347.977 27.7337 355.011C30.7798 360.207 33.7389 365.424 35.4817 371.23C36.107 373.145 36.6722 375.098 37.0378 377.139L36.6746 377.313C31.2654 371.225 27.7818 363.917 24.8547 356.416C21.6348 349.096 18.5338 341.715 15.5506 334.288L15.9138 334.115Z" fill="#A59790"/>
<path d="M43.4326 395.73C45.1741 407.235 46.9156 418.74 48.6494 430.252L43.4326 395.73Z" fill="white"/>
<path d="M43.627 395.697C45.5147 402.75 46.9097 409.916 48.6452 417.005C49.6305 421.345 49.7097 425.817 48.8438 430.22L48.4483 430.277C45.4763 425.044 44.659 419.129 44.4511 413.226C43.9157 407.414 43.5096 401.586 43.2238 395.761L43.6193 395.704L43.627 395.697Z" fill="#A59790"/>
<path d="M46.9761 448.085C46.3722 459.702 45.7606 471.325 45.1631 482.95L46.9761 448.085Z" fill="white"/>
<path d="M47.1811 448.096C47.4733 453.929 47.6375 459.764 47.6736 465.603C48.0454 471.499 47.8078 477.463 45.3682 482.961L44.9725 482.94C43.1095 477.209 43.5021 471.26 44.48 465.433C45.1149 459.633 45.8906 453.845 46.7855 448.075L47.1811 448.096Z" fill="#A59790"/>
<path d="M44.3145 501.892C44.9797 510.803 45.645 519.715 46.3026 528.632L44.3145 501.892Z" fill="white"/>
<path d="M44.5143 501.882C45.7378 507.378 46.4583 512.943 47.5309 518.462C48.116 521.872 47.7512 525.346 46.5025 528.622L46.1094 528.651C43.6792 524.595 43.3589 519.959 43.7213 515.391C43.7215 510.905 43.865 506.403 44.12 501.925L44.513 501.896L44.5143 501.882Z" fill="#A59790"/>
<path d="M48.2021 550.608C52.4224 558.095 56.635 565.589 60.8552 573.076L48.2021 550.608Z" fill="white"/>
<path d="M48.3737 550.517C51.7084 554.781 54.6199 559.334 57.8332 563.686C59.756 566.419 60.8284 569.616 61.0268 572.985L60.6828 573.181C56.8566 570.698 54.6699 566.777 53.1421 562.631C51.3241 558.715 49.6251 554.738 48.0374 550.707L48.3814 550.51L48.3737 550.517Z" fill="#A59790"/>
<path d="M76.189 591.33C82.8004 596.829 89.4054 602.32 96.0244 607.812L76.189 591.33Z" fill="white"/>
<path d="M76.323 591.179C80.9591 593.975 85.3029 597.186 89.8561 600.116C92.622 601.987 94.7699 604.584 96.1507 607.667L95.8965 607.971C91.431 607.014 88.0021 604.133 85.0882 600.808C81.9907 597.793 78.9863 594.688 76.0676 591.497L76.3217 591.193L76.323 591.179Z" fill="#A59790"/>
<path d="M121.619 617.698C129.747 620.505 137.861 623.311 145.988 626.119L121.619 617.698Z" fill="white"/>
<path d="M121.685 617.512C127.008 618.495 132.216 619.964 137.503 621.093C140.75 621.871 143.675 623.543 146.062 625.927L145.936 626.306C141.418 626.985 137.191 625.502 133.294 623.418C129.33 621.689 125.425 619.845 121.567 617.885L121.693 617.505L121.685 617.512Z" fill="#A59790"/>
<path d="M168.371 630.126C176.876 629.553 185.39 628.973 193.895 628.4L168.371 630.126Z" fill="white"/>
<path d="M168.352 629.933C173.595 628.765 178.915 628.094 184.18 627.077C187.445 626.522 190.774 626.93 193.877 628.206L193.898 628.606C190.038 630.989 185.605 631.271 181.232 630.862C176.942 630.815 172.656 630.634 168.374 630.333L168.352 629.933Z" fill="#A59790"/>
<path d="M205.564 625.778C216.729 620.982 227.889 616.179 239.054 611.383L205.564 625.778Z" fill="white"/>
<path d="M205.488 625.594C210.83 622.66 216.222 619.816 221.679 617.112C227.039 614.073 232.715 611.538 238.978 611.199L239.138 611.561C234.581 615.871 228.84 618.251 222.946 620.043C217.223 622.134 211.455 624.107 205.647 625.956L205.488 625.594Z" fill="#A59790"/>
<path d="M249.766 602.416C256.641 597.573 263.508 592.737 270.383 587.895L249.766 602.416Z" fill="white"/>
<path d="M249.653 602.25C253.472 598.57 257.604 595.281 261.511 591.723C263.98 589.578 266.996 588.227 270.27 587.729L270.504 588.055C268.495 592.058 264.9 594.572 260.999 596.455C257.365 598.61 253.65 600.638 249.88 602.568L249.646 602.242L249.653 602.25Z" fill="#A59790"/>
<path d="M303.546 545.318C304.102 539.049 304.665 532.774 305.221 526.505L303.546 545.318Z" fill="white"/>
<path d="M303.349 545.3C303.041 542.128 302.847 538.952 302.795 535.774C302.772 534.189 302.376 532.578 302.818 531.034C303.218 529.486 303.793 527.961 305.03 526.495L305.425 526.53C306.385 528.191 306.675 529.8 306.797 531.394C306.954 532.984 306.287 534.508 305.979 536.056C305.671 537.605 305.334 539.165 304.964 540.701C304.557 542.241 304.2 543.792 303.744 545.335L303.349 545.3Z" fill="#A59790"/>
<path d="M280.798 579.789C286.157 573.073 291.523 566.35 296.882 559.634L280.798 579.789Z" fill="white"/>
<path d="M280.639 579.661C283.348 574.968 286.465 570.559 289.301 565.954C291.118 563.155 293.67 560.954 296.723 559.507L297.035 559.754C296.169 564.235 293.354 567.726 290.086 570.709C287.137 573.869 284.09 576.929 280.957 579.916L280.646 579.669L280.639 579.661Z" fill="#A59790"/>
<path d="M305.846 516.409C304.975 511.1 304.097 505.798 303.226 500.489L305.846 516.409Z" fill="white"/>
<path d="M305.644 516.448C304.627 513.909 303.72 511.33 302.951 508.713C302.569 507.416 301.827 506.171 301.9 504.794C301.936 503.42 302.152 502.026 303.017 500.52L303.406 500.455C305.928 502.751 306.324 505.094 306.099 508.19C306.205 510.918 306.177 513.642 306.027 516.376L305.638 516.44L305.644 516.448Z" fill="#A59790"/>
<path d="M298.548 489.589C293.935 482.457 289.327 475.333 284.713 468.202L298.548 489.589Z" fill="white"/>
<path d="M298.382 489.702C294.825 485.702 291.679 481.398 288.237 477.303C286.172 474.727 284.927 471.635 284.547 468.315L284.886 468.097C288.829 470.299 291.218 474.025 292.978 478.028C295.01 481.779 296.921 485.604 298.721 489.484L298.382 489.702Z" fill="#A59790"/>
<path d="M247.632 437.819C253.34 436.131 260.038 436.405 265.377 439.448C270.915 442.715 275.076 448.791 274.745 455.406C274.403 462.148 269.571 468.528 262.86 469.92C250.925 472.582 235.027 464.294 235.898 450.784C236.115 448.738 236.863 446.795 238 445.178C235.402 451.017 238.129 457.577 242.746 461.472C246.681 464.646 251.691 466.346 256.7 466.535C264.137 467.286 270.318 462.503 270.984 455.151C271.485 449.815 268.159 444.735 263.983 441.632C259.294 438.32 253.408 437.443 247.647 437.806L247.632 437.819Z" fill="#A59790"/>
<path d="M257.464 435.9C259.148 430.356 259.558 424.614 258.07 419.052C257.044 415.177 255.555 411.389 252.196 409.324C248.503 406.86 246.209 409.027 244.487 412.516C242.675 415.742 241.891 419.541 242.043 423.275C241.906 427.941 243.419 432.334 246.351 436.101C237.357 429.61 236.691 414.857 243.817 406.622C248.05 401.957 255.092 405.087 257.94 409.549C262.941 417.517 262.507 428.184 257.484 435.909L257.464 435.9Z" fill="#A59790"/>
<path d="M254.344 434.651C249.109 424.845 255.822 407.409 268.562 409.121C277.165 410.487 276.811 419.052 275.176 425.637C274.597 428.013 273.754 430.31 272.513 432.379C273.327 427.837 273.478 423.016 272.992 418.571C272.7 415.699 271.044 413.238 268.031 413.035C262.788 412.35 259.045 416.462 256.576 421.411C254.477 425.307 253.837 429.886 254.351 434.659L254.344 434.651Z" fill="#A59790"/>
<path d="M240.827 437.556C238.159 438.498 236.214 439.383 234.909 441.61C233.619 443.824 233.352 446.122 233.248 448.973C230.24 447.031 229.601 442.623 231.47 439.559C233.212 436.327 238.031 435.136 240.812 437.555L240.827 437.556Z" fill="#A59790"/>
<path d="M234.682 455.937C227.865 462.452 223.4 471.172 224.505 480.576C224.597 481.621 224.835 482.621 225.161 483.104C225.404 483.488 225.605 483.541 225.981 483.617C228.097 483.698 230.325 482.185 232.161 481.013C236.16 478.422 239.173 474.87 241.391 470.587C240.752 475.556 237.913 480.267 234.085 483.498C231.471 485.673 227.939 488.355 224.229 487.132C220.182 485.538 220.428 480.52 220.424 477.119C220.645 468.144 226.693 459.573 234.675 455.943L234.682 455.937Z" fill="#A59790"/>
<path d="M240.095 465.659C238.539 469.206 237.451 472.673 236.902 476.457C236.344 479.872 235.81 483.814 236.698 487.009C237.587 491.156 242.427 493.168 246.113 491.869C252.599 488.852 253.243 479.745 252.445 473.292C253.603 475.609 254.277 478.175 254.509 480.836C254.97 486.294 253.023 492.957 247.533 495.388C243.092 497.202 237.791 495.824 234.891 492.095C229.668 485.108 234.751 471.333 240.089 465.652L240.095 465.659Z" fill="#A59790"/>
<path d="M231.243 436.359C228.003 437.193 224.251 436.917 221.335 435.054C217.303 432.496 214.649 425.993 219.02 422.49C221.937 420.101 226.197 419.847 229.479 421.664C231.993 422.937 232.782 426.202 231.25 428.515C230.274 430.075 228.806 431.812 226.755 431.574C224.803 431.252 223.581 429.014 224.112 427.187C224.585 425.944 225.888 425.491 226.965 425.516C225.899 425.691 224.837 426.385 224.645 427.34C224.35 429.075 226.391 431.357 228.055 430.042C229.408 429.026 230.729 426.865 230.233 425.167C229.213 422.499 225.326 422.062 222.846 422.73C216.644 424.31 218.021 430.721 222.097 433.986C224.67 435.953 227.999 436.518 231.251 436.352L231.243 436.359Z" fill="#A59790"/>
<path d="M227.684 442.311C224.266 441.952 220.746 442.577 218.06 444.695C215.584 446.598 213.424 449.58 214.004 452.812C214.917 458.763 221.825 460.114 225.387 455.567C226.506 454.083 226.455 451.452 225.154 450.116C224.544 449.465 223.416 449.301 222.424 449.519C219.89 449.997 220.116 453.133 221.989 454.421C219.442 453.201 219.179 449.522 222.153 448.572C226.064 447.215 228.397 451.248 227.64 454.659C227.195 456.636 225.67 458.226 223.961 459.16C218.813 462.062 212.882 458.902 212.14 453.094C211.291 445.21 220.808 439.877 227.684 442.311Z" fill="#A59790"/>
<path d="M252.87 441.52C252.593 447.842 250.202 453.99 246.084 458.807C246.346 452.484 248.772 446.346 252.87 441.52Z" fill="#A59790"/>
<path d="M265.531 444.836C268.028 452.461 264.095 461.831 256.889 465.359C260.903 458.843 263.687 452.261 265.531 444.836Z" fill="#A59790"/>
</g>
<defs>
<clipPath id="clip0_1232_8684">
<rect width="671.25" height="267.75" fill="white" transform="translate(-70.8379) rotate(50.066)"/>
</clipPath>
</defs>
</svg>
